<?xml version="1.0" encoding="UTF-8" standalone="no"?>
<!-- Created with Inkscape (http://www.inkscape.org/) -->

<svg
   xmlns:dc="http://purl.org/dc/elements/1.1/"
   xmlns:cc="http://creativecommons.org/ns#"
   xmlns:rdf="http://www.w3.org/1999/02/22-rdf-syntax-ns#"
   xmlns:svg="http://www.w3.org/2000/svg"
   xmlns="http://www.w3.org/2000/svg"
   xmlns:xlink="http://www.w3.org/1999/xlink"
   version="1.2"
   width="96"
   height="96"
   viewBox="0 0 96 96"
   id="ORANGE_BACKGROUNDS"
   xml:space="preserve"
   style="display:inline"><metadata
   id="metadata3069"><rdf:RDF><cc:Work
       rdf:about=""><dc:format>image/svg+xml</dc:format><dc:type
         rdf:resource="http://purl.org/dc/dcmitype/StillImage" /><dc:title></dc:title></cc:Work></rdf:RDF></metadata><defs
   id="defs3067"><linearGradient
   id="linearGradient5113"><stop
     id="stop5115"
     style="stop-color:#64af2d;stop-opacity:1"
     offset="0" /></linearGradient><linearGradient
   id="linearGradient5332"><stop
     id="stop5334"
     style="stop-color:#78c56d;stop-opacity:1"
     offset="0" /></linearGradient><linearGradient
   id="linearGradient3799"><stop
     id="stop3801"
     style="stop-color:#7886e4;stop-opacity:1"
     offset="0" /></linearGradient><linearGradient
   x1="47.9995"
   y1="8.0107002"
   x2="47.9995"
   y2="87.9897"
   id="RED_x2F_ORANGE_5_2_-1"
   gradientUnits="userSpaceOnUse"><stop
     id="stop3054-7"
     style="stop-color:#ffdb62;stop-opacity:1"
     offset="0" /><stop
     id="stop3056-4"
     style="stop-color:#fad15c;stop-opacity:1"
     offset="0.1393" /><stop
     id="stop3058-0"
     style="stop-color:#edb74d;stop-opacity:1"
     offset="0.3741" /><stop
     id="stop3060-9"
     style="stop-color:#e6a844;stop-opacity:1"
     offset="0.48480001" /><stop
     id="stop3062-4"
     style="stop-color:#c96b25;stop-opacity:1"
     offset="1" /></linearGradient><linearGradient
   x1="47.9995"
   y1="8.0107002"
   x2="47.9995"
   y2="87.9897"
   id="linearGradient3091"
   xlink:href="#RED_x2F_ORANGE_5_2_-1"
   gradientUnits="userSpaceOnUse"
   gradientTransform="translate(2.000003,-1.988)" /><linearGradient
   x1="47.9995"
   y1="8.0107002"
   x2="47.9995"
   y2="87.9897"
   id="linearGradient3124"
   xlink:href="#RED_x2F_ORANGE_5_2_-1"
   gradientUnits="userSpaceOnUse"
   gradientTransform="translate(1.5e-6,5e-4)" /><linearGradient
   x1="47.9995"
   y1="8.0107002"
   x2="47.9995"
   y2="87.9897"
   id="linearGradient3124-1"
   xlink:href="#RED_x2F_ORANGE_5_2_-1-7"
   gradientUnits="userSpaceOnUse"
   gradientTransform="translate(1.5e-6,5e-4)" /><linearGradient
   x1="47.9995"
   y1="8.0107002"
   x2="47.9995"
   y2="87.9897"
   id="RED_x2F_ORANGE_5_2_-1-7"
   gradientUnits="userSpaceOnUse"><stop
     id="stop3054-7-4"
     style="stop-color:#ffdb62;stop-opacity:1"
     offset="0" /><stop
     id="stop3056-4-0"
     style="stop-color:#fad15c;stop-opacity:1"
     offset="0.1393" /><stop
     id="stop3058-0-9"
     style="stop-color:#edb74d;stop-opacity:1"
     offset="0.3741" /><stop
     id="stop3060-9-4"
     style="stop-color:#e6a844;stop-opacity:1"
     offset="0.48480001" /><stop
     id="stop3062-4-8"
     style="stop-color:#c96b25;stop-opacity:1"
     offset="1" /></linearGradient><linearGradient
   x1="47.9995"
   y1="8.0107002"
   x2="47.9995"
   y2="87.9897"
   id="linearGradient3234"
   xlink:href="#RED_x2F_ORANGE_5_2_-1-7"
   gradientUnits="userSpaceOnUse"
   gradientTransform="translate(1.5e-6,5e-4)" /><linearGradient
   x1="47.9995"
   y1="8.0107002"
   x2="47.9995"
   y2="87.9897"
   id="linearGradient3234-8"
   xlink:href="#RED_x2F_ORANGE_5_2_-1-7-2"
   gradientUnits="userSpaceOnUse"
   gradientTransform="translate(1.5e-6,5e-4)" /><linearGradient
   x1="47.9995"
   y1="8.0107002"
   x2="47.9995"
   y2="87.9897"
   id="RED_x2F_ORANGE_5_2_-1-7-2"
   gradientUnits="userSpaceOnUse"><stop
     id="stop3054-7-4-4"
     style="stop-color:#ffdb62;stop-opacity:1"
     offset="0" /><stop
     id="stop3056-4-0-5"
     style="stop-color:#fad15c;stop-opacity:1"
     offset="0.1393" /><stop
     id="stop3058-0-9-5"
     style="stop-color:#edb74d;stop-opacity:1"
     offset="0.3741" /><stop
     id="stop3060-9-4-1"
     style="stop-color:#e6a844;stop-opacity:1"
     offset="0.48480001" /><stop
     id="stop3062-4-8-7"
     style="stop-color:#c96b25;stop-opacity:1"
     offset="1" /></linearGradient><linearGradient
   x1="47.9995"
   y1="8.0107002"
   x2="47.9995"
   y2="87.9897"
   id="linearGradient3277"
   xlink:href="#RED_x2F_ORANGE_5_2_-1-7-2"
   gradientUnits="userSpaceOnUse"
   gradientTransform="translate(1.5e-6,5e-4)" /><linearGradient
   x1="-77.5"
   y1="31.75"
   x2="-15"
   y2="31.75"
   id="linearGradient3803-1"
   xlink:href="#linearGradient3799-7"
   gradientUnits="userSpaceOnUse" /><linearGradient
   id="linearGradient3799-7"><stop
     id="stop3801-4"
     style="stop-color:#78d9e4;stop-opacity:1"
     offset="0" /></linearGradient><linearGradient
   x1="-77.5"
   y1="31.75"
   x2="-15"
   y2="31.75"
   id="linearGradient3819-9"
   xlink:href="#linearGradient3799-7-4"
   gradientUnits="userSpaceOnUse" /><linearGradient
   id="linearGradient3799-7-4"><stop
     id="stop3801-4-8"
     style="stop-color:#782ee4;stop-opacity:1"
     offset="0" /></linearGradient><linearGradient
   x1="-77.5"
   y1="31.75"
   x2="-15"
   y2="31.75"
   id="linearGradient3850-2"
   xlink:href="#linearGradient3799-7-4-4"
   gradientUnits="userSpaceOnUse" /><linearGradient
   id="linearGradient3799-7-4-4"><stop
     id="stop3801-4-8-5"
     style="stop-color:#782e38;stop-opacity:1"
     offset="0" /></linearGradient><linearGradient
   x1="47.9995"
   y1="8.0107002"
   x2="47.9995"
   y2="87.9897"
   id="linearGradient3277-1"
   xlink:href="#RED_x2F_ORANGE_5_2_-1-7-2-7"
   gradientUnits="userSpaceOnUse"
   gradientTransform="translate(1.5e-6,5e-4)" /><linearGradient
   x1="47.9995"
   y1="8.0107002"
   x2="47.9995"
   y2="87.9897"
   id="RED_x2F_ORANGE_5_2_-1-7-2-7"
   gradientUnits="userSpaceOnUse"><stop
     id="stop3054-7-4-4-4"
     style="stop-color:#ffdb62;stop-opacity:1"
     offset="0" /><stop
     id="stop3056-4-0-5-0"
     style="stop-color:#fad15c;stop-opacity:1"
     offset="0.1393" /><stop
     id="stop3058-0-9-5-9"
     style="stop-color:#edb74d;stop-opacity:1"
     offset="0.3741" /><stop
     id="stop3060-9-4-1-4"
     style="stop-color:#e6a844;stop-opacity:1"
     offset="0.48480001" /><stop
     id="stop3062-4-8-7-8"
     style="stop-color:#c96b25;stop-opacity:1"
     offset="1" /></linearGradient><linearGradient
   x1="47.9995"
   y1="8.0107002"
   x2="47.9995"
   y2="87.9897"
   id="linearGradient4552"
   xlink:href="#RED_x2F_ORANGE_5_2_-1-7-2-7"
   gradientUnits="userSpaceOnUse"
   gradientTransform="translate(1.5e-6,5e-4)" /><linearGradient
   x1="47.9995"
   y1="8.0107002"
   x2="47.9995"
   y2="87.9897"
   id="linearGradient4552-2"
   xlink:href="#RED_x2F_ORANGE_5_2_-1-7-2-7-4"
   gradientUnits="userSpaceOnUse"
   gradientTransform="translate(1.5e-6,5e-4)" /><linearGradient
   x1="47.9995"
   y1="8.0107002"
   x2="47.9995"
   y2="87.9897"
   id="RED_x2F_ORANGE_5_2_-1-7-2-7-4"
   gradientUnits="userSpaceOnUse"><stop
     id="stop3054-7-4-4-4-5"
     style="stop-color:#ffdb62;stop-opacity:1"
     offset="0" /><stop
     id="stop3056-4-0-5-0-5"
     style="stop-color:#fad15c;stop-opacity:1"
     offset="0.1393" /><stop
     id="stop3058-0-9-5-9-1"
     style="stop-color:#edb74d;stop-opacity:1"
     offset="0.3741" /><stop
     id="stop3060-9-4-1-4-7"
     style="stop-color:#e6a844;stop-opacity:1"
     offset="0.48480001" /><stop
     id="stop3062-4-8-7-8-1"
     style="stop-color:#c96b25;stop-opacity:1"
     offset="1" /></linearGradient>
	

		<linearGradient
   x1="47.9995"
   y1="8.0107002"
   x2="47.9995"
   y2="87.9897"
   id="RED_x2F_ORANGE_5_2_-8"
   gradientUnits="userSpaceOnUse">
			<stop
   id="stop6363"
   style="stop-color:#ffdb62;stop-opacity:1"
   offset="0" />
			<stop
   id="stop6365"
   style="stop-color:#fad15c;stop-opacity:1"
   offset="0.1393" />
			<stop
   id="stop6367"
   style="stop-color:#edb74d;stop-opacity:1"
   offset="0.3741" />
			<stop
   id="stop6369"
   style="stop-color:#e6a844;stop-opacity:1"
   offset="0.48480001" />
			<stop
   id="stop6371"
   style="stop-color:#c96b25;stop-opacity:1"
   offset="1" />
		</linearGradient>
		
		<linearGradient
   x1="47.9995"
   y1="8.2559004"
   x2="47.9995"
   y2="87.504303"
   id="HIGHLIGHTS_RO5_1_"
   gradientUnits="userSpaceOnUse">
			<stop
   id="stop6375"
   style="stop-color:#ffffff;stop-opacity:1"
   offset="0" />
			<stop
   id="stop6377"
   style="stop-color:#fdf8f5;stop-opacity:1"
   offset="0.0958" />
			<stop
   id="stop6379"
   style="stop-color:#f6e6db;stop-opacity:1"
   offset="0.2579" />
			<stop
   id="stop6381"
   style="stop-color:#ebc9af;stop-opacity:1"
   offset="0.4666" />
			<stop
   id="stop6383"
   style="stop-color:#dca073;stop-opacity:1"
   offset="0.71359998" />
			<stop
   id="stop6385"
   style="stop-color:#ca6d28;stop-opacity:1"
   offset="0.99040002" />
			<stop
   id="stop6387"
   style="stop-color:#c96b25;stop-opacity:1"
   offset="1" />
		</linearGradient>
		
	
	
<linearGradient
   x1="47.9995"
   y1="9.7622004"
   x2="47.9995"
   y2="89.741203"
   id="linearGradient5108"
   xlink:href="#VIOLET_1_3_"
   gradientUnits="userSpaceOnUse" /><linearGradient
   x1="-54.5"
   y1="-35.875"
   x2="-19.75"
   y2="-35.875"
   id="linearGradient5117"
   xlink:href="#linearGradient5113"
   gradientUnits="userSpaceOnUse"
   gradientTransform="matrix(0.14388489,0,0,0.14184397,113.31386,2.588652)" /><linearGradient
   x1="-54.5"
   y1="-35.875"
   x2="-19.75"
   y2="-35.875"
   id="linearGradient5117-3"
   xlink:href="#linearGradient5113-1"
   gradientUnits="userSpaceOnUse"
   gradientTransform="matrix(0.14388489,0,0,0.14184397,-12.158274,-16.411348)" /><linearGradient
   id="linearGradient5113-1"><stop
     id="stop5115-9"
     style="stop-color:#449311;stop-opacity:1"
     offset="0" /></linearGradient><linearGradient
   x1="-54.5"
   y1="-35.875"
   x2="-19.75"
   y2="-35.875"
   id="linearGradient5133"
   xlink:href="#linearGradient5113-1"
   gradientUnits="userSpaceOnUse"
   gradientTransform="matrix(0.14388489,0,0,0.14184397,113.31386,7.588652)" /><linearGradient
   x1="-54.5"
   y1="-35.875"
   x2="-19.75"
   y2="-35.875"
   id="linearGradient5133-6"
   xlink:href="#linearGradient5113-1-5"
   gradientUnits="userSpaceOnUse"
   gradientTransform="matrix(0.14388489,0,0,0.14184397,-7.158274,-16.411348)" /><linearGradient
   id="linearGradient5113-1-5"><stop
     id="stop5115-9-0"
     style="stop-color:#128406;stop-opacity:1"
     offset="0" /></linearGradient><linearGradient
   x1="-54.5"
   y1="-35.875"
   x2="-19.75"
   y2="-35.875"
   id="linearGradient5164"
   xlink:href="#linearGradient5113-1-5"
   gradientUnits="userSpaceOnUse"
   gradientTransform="matrix(0.14388489,0,0,0.14184397,113.31386,12.588652)" /><linearGradient
   x1="-54.5"
   y1="-35.875"
   x2="-19.75"
   y2="-35.875"
   id="linearGradient5164-8"
   xlink:href="#linearGradient5113-1-5-6"
   gradientUnits="userSpaceOnUse"
   gradientTransform="matrix(0.14388489,0,0,0.14184397,-2.158274,-16.411348)" /><linearGradient
   id="linearGradient5113-1-5-6"><stop
     id="stop5115-9-0-0"
     style="stop-color:#009351;stop-opacity:1"
     offset="0" /></linearGradient><linearGradient
   x1="-54.5"
   y1="-35.875"
   x2="-19.75"
   y2="-35.875"
   id="linearGradient5195"
   xlink:href="#linearGradient5113-1-5-6"
   gradientUnits="userSpaceOnUse"
   gradientTransform="matrix(0.14388489,0,0,0.14184397,113.31386,17.588652)" /><linearGradient
   x1="-54.5"
   y1="-35.875"
   x2="-19.75"
   y2="-35.875"
   id="linearGradient5195-4"
   xlink:href="#linearGradient5113-1-5-6-8"
   gradientUnits="userSpaceOnUse"
   gradientTransform="matrix(0.14388489,0,0,0.14184397,113.31386,37.588652)" /><linearGradient
   id="linearGradient5113-1-5-6-8"><stop
     id="stop5115-9-0-0-6"
     style="stop-color:#1b34b2;stop-opacity:1"
     offset="0" /></linearGradient><linearGradient
   x1="-54.5"
   y1="-35.875"
   x2="-19.75"
   y2="-35.875"
   id="linearGradient5164-5"
   xlink:href="#linearGradient5113-1-5-0"
   gradientUnits="userSpaceOnUse"
   gradientTransform="matrix(0.14388489,0,0,0.14184397,113.31386,32.588652)" /><linearGradient
   id="linearGradient5113-1-5-0"><stop
     id="stop5115-9-0-9"
     style="stop-color:#0066a8;stop-opacity:1"
     offset="0" /></linearGradient><linearGradient
   x1="-54.5"
   y1="-35.875"
   x2="-19.75"
   y2="-35.875"
   id="linearGradient5133-0"
   xlink:href="#linearGradient5113-1-0"
   gradientUnits="userSpaceOnUse"
   gradientTransform="matrix(0.14388489,0,0,0.14184397,113.31386,27.588652)" /><linearGradient
   id="linearGradient5113-1-0"><stop
     id="stop5115-9-6"
     style="stop-color:#0082b6;stop-opacity:1"
     offset="0" /></linearGradient><linearGradient
   x1="-54.5"
   y1="-35.875"
   x2="-19.75"
   y2="-35.875"
   id="linearGradient5117-1"
   xlink:href="#linearGradient5113-3"
   gradientUnits="userSpaceOnUse"
   gradientTransform="matrix(0.14388489,0,0,0.14184397,-12.158274,-16.411348)" /><linearGradient
   id="linearGradient5113-3"><stop
     id="stop5115-8"
     style="stop-color:#0d9758;stop-opacity:1"
     offset="0" /></linearGradient><linearGradient
   x1="-54.5"
   y1="-35.875"
   x2="-19.75"
   y2="-35.875"
   id="linearGradient5238"
   xlink:href="#linearGradient5113-3"
   gradientUnits="userSpaceOnUse"
   gradientTransform="matrix(0.14388489,0,0,0.14184397,113.31386,22.588652)" /><linearGradient
   x1="-54.5"
   y1="-35.875"
   x2="-19.75"
   y2="-35.875"
   id="linearGradient5238-6"
   xlink:href="#linearGradient5113-3-0"
   gradientUnits="userSpaceOnUse"
   gradientTransform="matrix(0.14388489,0,0,0.14184397,-12.158274,-11.411348)" /><linearGradient
   id="linearGradient5113-3-0"><stop
     id="stop5115-8-6"
     style="stop-color:#2c00a5;stop-opacity:1"
     offset="0" /></linearGradient><linearGradient
   x1="-54.5"
   y1="-35.875"
   x2="-19.75"
   y2="-35.875"
   id="linearGradient5133-0-6"
   xlink:href="#linearGradient5113-1-0-1"
   gradientUnits="userSpaceOnUse"
   gradientTransform="matrix(0.14388489,0,0,0.14184397,113.31386,47.588652)" /><linearGradient
   id="linearGradient5113-1-0-1"><stop
     id="stop5115-9-6-8"
     style="stop-color:#62226a;stop-opacity:1"
     offset="0" /></linearGradient><linearGradient
   x1="-54.5"
   y1="-35.875"
   x2="-19.75"
   y2="-35.875"
   id="linearGradient5164-5-4"
   xlink:href="#linearGradient5113-1-5-0-9"
   gradientUnits="userSpaceOnUse"
   gradientTransform="matrix(0.14388489,0,0,0.14184397,113.31386,52.588652)" /><linearGradient
   id="linearGradient5113-1-5-0-9"><stop
     id="stop5115-9-0-9-6"
     style="stop-color:#e50c98;stop-opacity:1"
     offset="0" /></linearGradient><linearGradient
   x1="-54.5"
   y1="-35.875"
   x2="-19.75"
   y2="-35.875"
   id="linearGradient5195-4-3"
   xlink:href="#linearGradient5113-1-5-6-8-7"
   gradientUnits="userSpaceOnUse"
   gradientTransform="matrix(0.14388489,0,0,0.14184397,113.31386,57.588652)" /><linearGradient
   id="linearGradient5113-1-5-6-8-7"><stop
     id="stop5115-9-0-0-6-8"
     style="stop-color:#ec297b;stop-opacity:1"
     offset="0" /></linearGradient><linearGradient
   x1="-54.5"
   y1="-35.875"
   x2="-19.75"
   y2="-35.875"
   id="linearGradient5305"
   xlink:href="#linearGradient5113-3-0"
   gradientUnits="userSpaceOnUse"
   gradientTransform="matrix(0.14388489,0,0,0.14184397,113.31386,42.588652)" /><linearGradient
   x1="-54.5"
   y1="-35.875"
   x2="-19.75"
   y2="-35.875"
   id="linearGradient5195-4-3-3"
   xlink:href="#linearGradient5113-1-5-6-8-7-5"
   gradientUnits="userSpaceOnUse"
   gradientTransform="matrix(0.14388489,0,0,0.14184397,113.31386,77.588652)" /><linearGradient
   id="linearGradient5113-1-5-6-8-7-5"><stop
     id="stop5115-9-0-0-6-8-9"
     style="stop-color:#ff7a0d;stop-opacity:1"
     offset="0" /></linearGradient><linearGradient
   x1="-54.5"
   y1="-35.875"
   x2="-19.75"
   y2="-35.875"
   id="linearGradient5164-5-4-8"
   xlink:href="#linearGradient5113-1-5-0-9-4"
   gradientUnits="userSpaceOnUse"
   gradientTransform="matrix(0.14388489,0,0,0.14184397,113.31386,72.588652)" /><linearGradient
   id="linearGradient5113-1-5-0-9-4"><stop
     id="stop5115-9-0-9-6-0"
     style="stop-color:#ff5b00;stop-opacity:1"
     offset="0" /></linearGradient><linearGradient
   x1="-54.5"
   y1="-35.875"
   x2="-19.75"
   y2="-35.875"
   id="linearGradient5133-0-6-7"
   xlink:href="#linearGradient5113-1-0-1-6"
   gradientUnits="userSpaceOnUse"
   gradientTransform="matrix(0.14388489,0,0,0.14184397,113.31386,67.588652)" /><linearGradient
   id="linearGradient5113-1-0-1-6"><stop
     id="stop5115-9-6-8-3"
     style="stop-color:#f74000;stop-opacity:1"
     offset="0" /></linearGradient><linearGradient
   x1="-54.5"
   y1="-35.875"
   x2="-19.75"
   y2="-35.875"
   id="linearGradient5305-6"
   xlink:href="#linearGradient5113-3-0-1"
   gradientUnits="userSpaceOnUse"
   gradientTransform="matrix(0.14388489,0,0,0.14184397,-12.158274,-6.411348)" /><linearGradient
   id="linearGradient5113-3-0-1"><stop
     id="stop5115-8-6-5"
     style="stop-color:#e21429;stop-opacity:1"
     offset="0" /></linearGradient><linearGradient
   x1="-54.5"
   y1="-35.875"
   x2="-19.75"
   y2="-35.875"
   id="linearGradient5372"
   xlink:href="#linearGradient5113-3-0-1"
   gradientUnits="userSpaceOnUse"
   gradientTransform="matrix(0.14388489,0,0,0.14184397,113.31386,62.588652)" /><linearGradient
   x1="-54.5"
   y1="-35.875"
   x2="-19.75"
   y2="-35.875"
   id="linearGradient5195-4-3-3-7"
   xlink:href="#linearGradient5113-1-5-6-8-7-5-3"
   gradientUnits="userSpaceOnUse"
   gradientTransform="matrix(0.14388489,0,0,0.14184397,113.31386,97.588652)" /><linearGradient
   id="linearGradient5113-1-5-6-8-7-5-3"><stop
     id="stop5115-9-0-0-6-8-9-7"
     style="stop-color:#e0e0e0;stop-opacity:1"
     offset="0" /></linearGradient><linearGradient
   x1="-54.5"
   y1="-35.875"
   x2="-19.75"
   y2="-35.875"
   id="linearGradient5164-5-4-8-2"
   xlink:href="#linearGradient5113-1-5-0-9-4-6"
   gradientUnits="userSpaceOnUse"
   gradientTransform="matrix(0.14388489,0,0,0.14184397,113.31386,92.588652)" /><linearGradient
   id="linearGradient5113-1-5-0-9-4-6"><stop
     id="stop5115-9-0-9-6-0-0"
     style="stop-color:#e8e8e8;stop-opacity:1"
     offset="0" /></linearGradient><linearGradient
   x1="-54.5"
   y1="-35.875"
   x2="-19.75"
   y2="-35.875"
   id="linearGradient5133-0-6-7-1"
   xlink:href="#linearGradient5113-1-0-1-6-6"
   gradientUnits="userSpaceOnUse"
   gradientTransform="matrix(0.14388489,0,0,0.14184397,113.31386,87.588652)" /><linearGradient
   id="linearGradient5113-1-0-1-6-6"><stop
     id="stop5115-9-6-8-3-5"
     style="stop-color:#f7d303;stop-opacity:1"
     offset="0" /></linearGradient><linearGradient
   x1="-54.5"
   y1="-35.875"
   x2="-19.75"
   y2="-35.875"
   id="linearGradient5372-7"
   xlink:href="#linearGradient5113-3-0-1-5"
   gradientUnits="userSpaceOnUse"
   gradientTransform="matrix(0.14388489,0,0,0.14184397,-12.158274,-1.411348)" /><linearGradient
   id="linearGradient5113-3-0-1-5"><stop
     id="stop5115-8-6-5-4"
     style="stop-color:#ffa300;stop-opacity:1"
     offset="0" /></linearGradient><linearGradient
   x1="-54.5"
   y1="-35.875"
   x2="-19.75"
   y2="-35.875"
   id="linearGradient5439"
   xlink:href="#linearGradient5113-3-0-1-5"
   gradientUnits="userSpaceOnUse"
   gradientTransform="matrix(0.14388489,0,0,0.14184397,113.31386,82.588652)" /><linearGradient
   x1="-54.5"
   y1="-35.875"
   x2="-19.75"
   y2="-35.875"
   id="linearGradient5164-5-4-8-2-1"
   xlink:href="#linearGradient5113-1-5-0-9-4-6-4"
   gradientUnits="userSpaceOnUse"
   gradientTransform="matrix(0.14388489,0,0,0.14184397,-12.158274,8.588652)" /><linearGradient
   id="linearGradient5113-1-5-0-9-4-6-4"><stop
     id="stop5115-9-0-9-6-0-0-6"
     style="stop-color:#d3d3d3;stop-opacity:1"
     offset="0" /></linearGradient><linearGradient
   x1="-54.5"
   y1="-35.875"
   x2="-19.75"
   y2="-35.875"
   id="linearGradient5195-4-3-3-7-0"
   xlink:href="#linearGradient5113-1-5-6-8-7-5-3-7"
   gradientUnits="userSpaceOnUse"
   gradientTransform="matrix(0.14388489,0,0,0.14184397,113.31386,107.58865)" /><linearGradient
   id="linearGradient5113-1-5-6-8-7-5-3-7"><stop
     id="stop5115-9-0-0-6-8-9-7-1"
     style="stop-color:#cecece;stop-opacity:1"
     offset="0" /></linearGradient><linearGradient
   x1="-54.5"
   y1="-35.875"
   x2="-19.75"
   y2="-35.875"
   id="linearGradient5498"
   xlink:href="#linearGradient5113-1-5-0-9-4-6-4"
   gradientUnits="userSpaceOnUse"
   gradientTransform="matrix(0.14388489,0,0,0.14184397,113.31386,102.58865)" /><linearGradient
   x1="48.452099"
   y1="39.117199"
   x2="48.452099"
   y2="70.455498"
   id="SVGID_1_"
   gradientUnits="userSpaceOnUse"><stop
     id="stop4392-1"
     style="stop-color:#fafcef;stop-opacity:1"
     offset="0.32319999" /><stop
     id="stop4394-7"
     style="stop-color:#d0cbc5;stop-opacity:1"
     offset="1" /></linearGradient><linearGradient
   x1="48.452099"
   y1="39.117199"
   x2="48.452099"
   y2="70.455498"
   id="linearGradient4418"
   xlink:href="#SVGID_1_"
   gradientUnits="userSpaceOnUse"
   gradientTransform="translate(68.546831,-90.188689)" /><linearGradient
   x1="47.9995"
   y1="0"
   x2="47.9995"
   y2="144.6673"
   id="HIGHLIGHT_RIM_1_"
   gradientUnits="userSpaceOnUse"><stop
     id="stop4495"
     style="stop-color:#ffffff;stop-opacity:1"
     offset="0" /><stop
     id="stop4497"
     style="stop-color:#000000;stop-opacity:1"
     offset="1" /></linearGradient><linearGradient
   x1="47.9995"
   y1="0"
   x2="47.9995"
   y2="144.6673"
   id="linearGradient4559"
   gradientUnits="userSpaceOnUse"><stop
     id="stop4561"
     style="stop-color:#ffffff;stop-opacity:1"
     offset="0" /><stop
     id="stop4563"
     style="stop-color:#000000;stop-opacity:1"
     offset="1" /></linearGradient><linearGradient
   x1="47.9995"
   y1="0"
   x2="47.9995"
   y2="144.6673"
   id="linearGradient3263"
   xlink:href="#HIGHLIGHT_RIM_1_"
   gradientUnits="userSpaceOnUse" /></defs>
<linearGradient
   x1="47.9995"
   y1="8.0107002"
   x2="47.9995"
   y2="87.9897"
   id="RED_x2F_ORANGE_5_2_"
   gradientUnits="userSpaceOnUse">
	<stop
   id="stop3054"
   style="stop-color:#ffdb62;stop-opacity:1"
   offset="0" />
	<stop
   id="stop3056"
   style="stop-color:#fad15c;stop-opacity:1"
   offset="0.1393" />
	<stop
   id="stop3058"
   style="stop-color:#edb74d;stop-opacity:1"
   offset="0.3741" />
	<stop
   id="stop3060"
   style="stop-color:#e6a844;stop-opacity:1"
   offset="0.48480001" />
	<stop
   id="stop3062"
   style="stop-color:#c96b25;stop-opacity:1"
   offset="1" />
</linearGradient>

<g
   id="layer5"
   style="display:inline"><rect
     width="96"
     height="96"
     x="0"
     y="0"
     id="rect3119"
     style="fill:#000000;fill-opacity:0;stroke:none;display:inline" /></g><g
   id="layer4"
   style="display:inline"><path
     d="m 88.023,49 c 0,29.633 -10.364,40 -40,40 -29.635,0 -40,-10.367 -40,-40 0,-29.634 10.366,-40 40,-40 29.636,0 40,10.365 40,40 z"
     id="SHADOW"
     style="opacity:0.4" /></g><g
   id="layer7"
   style="display:inline"><path
     d="m 48,7.96875 c -29.635,0 -40,10.366 -40,40 0,29.633 10.365,40 40,40 29.637,0 40,-10.368 40,-40 0,-29.635 -10.363,-40 -40,-40 z"
     id="rect3770"
     style="fill:url(#linearGradient5113-3-0);fill-opacity:1;stroke:#ffffff;stroke-width:0;stroke-linejoin:round;stroke-miterlimit:4;stroke-opacity:1;stroke-dasharray:none;stroke-dashoffset:0;display:inline" /></g><g
   id="layer2"
   style="display:inline"><path
     d="M 9.8933776,9.8933782 H 86.106616 V 86.106617 H 9.8933776 z"
     id="path3728"
     style="fill:none" /><path
     d="m 21.007808,25.771136 0,12.702207 4.763328,0 0,-12.702207 12.702206,0 0,-4.763327 -12.702206,0 c -3.508985,0 -4.328091,1.28144 -4.763328,4.763327 z m 4.763328,31.755516 -4.763328,0 0,12.702207 c 0,3.508984 1.28144,4.328091 4.763328,4.763327 l 12.702206,0 0,-4.763327 -12.702206,0 z m 44.457722,12.702207 -12.702206,0 0,4.763327 12.702206,0 c 3.508985,0 4.328091,-1.28144 4.763327,-4.763327 l 0,-12.702207 -4.763327,0 z m 0,-49.22105 -12.702206,0 0,4.763327 12.702206,0 0,12.702207 4.763327,0 0,-12.702207 c 0,-3.508984 -1.281439,-4.328091 -4.763327,-4.763327 z"
     id="path3730"
     style="fill:#ffffff" /><path
     d="m 54.776187,57.427015 c -2.055121,1.404664 -4.458787,2.108744 -6.91724,2.074938 -0.325229,-0.0035 -0.646962,-0.01982 -0.965196,-0.04778 -0.130547,-0.01048 -0.261118,-0.03149 -0.391676,-0.04663 -0.250623,-0.0338 -0.502414,-0.06645 -0.747211,-0.111906 -0.150378,-0.02798 -0.298417,-0.06645 -0.446462,-0.101412 -0.241299,-0.05362 -0.477934,-0.109572 -0.712239,-0.177186 -0.114241,-0.03264 -0.222648,-0.07228 -0.335721,-0.109572 -0.269274,-0.08742 -0.538551,-0.178353 -0.799668,-0.285598 -0.05945,-0.02332 -0.116574,-0.05013 -0.174853,-0.07577 -0.305412,-0.130547 -0.607328,-0.26811 -0.899918,-0.421981 -0.01397,-0.007 -0.02566,-0.01397 -0.04079,-0.02215 -0.988511,-0.529226 -1.89309,-1.190174 -2.68693,-1.963032 -0.01286,-0.01048 -0.02448,-0.02448 -0.03965,-0.04081 -0.245962,-0.238968 -0.481432,-0.491925 -0.704081,-0.755372 -0.04781,-0.05479 -0.09209,-0.115399 -0.139883,-0.172523 -1.614489,-1.968861 -2.587846,-4.462285 -2.587846,-7.173693 l 3.108911,0 -4.974025,-7.276276 -4.97286,7.275109 3.108912,0 c 0,3.187014 1.019983,6.144384 2.752208,8.585351 0.02097,0.03496 0.03496,0.07228 0.05945,0.104921 0.179518,0.249458 0.378852,0.481432 0.570025,0.716903 0.07343,0.0886 0.139883,0.181849 0.214488,0.269275 0.284431,0.334554 0.585181,0.650458 0.894089,0.958202 0.03031,0.02914 0.05829,0.06062 0.08626,0.0886 1.039801,1.01299 2.214821,1.868611 3.492427,2.550543 0.03496,0.02097 0.06761,0.04081 0.102586,0.05829 0.368359,0.192342 0.746043,0.367196 1.130723,0.531559 0.09676,0.03963 0.188846,0.08511 0.286762,0.12472 0.327562,0.132897 0.664446,0.249458 1.003665,0.360199 0.160866,0.05246 0.320567,0.108414 0.483764,0.156206 0.297252,0.08626 0.600333,0.158539 0.905746,0.227311 0.202831,0.04663 0.404497,0.09558 0.609659,0.134055 0.08626,0.0175 0.166694,0.04312 0.251791,0.05595 0.287927,0.05013 0.578183,0.0781 0.866111,0.113081 0.103745,0.01175 0.206328,0.0268 0.310075,0.03965 0.519901,0.05129 1.036305,0.08393 1.553872,0.08393 3.157873,0 6.241139,-0.94305 8.88727,-2.746381 0.842798,-0.578187 1.045628,-1.710077 0.455785,-2.534223 -0.589841,-0.824148 -1.755538,-1.022317 -2.598336,-0.446462 m 8.767203,-9.431649 c -0.0012,-3.178853 -1.015321,-6.128064 -2.739387,-8.566701 -0.02448,-0.04312 -0.04079,-0.08393 -0.06993,-0.124736 -0.214488,-0.297252 -0.447628,-0.574689 -0.6796,-0.85329 -0.02798,-0.0338 -0.05362,-0.06878 -0.08044,-0.102586 -1.578354,-1.867445 -3.557705,-3.305914 -5.802838,-4.248961 -0.06294,-0.02566 -0.122386,-0.05597 -0.185344,-0.0816 -0.357869,-0.143392 -0.725063,-0.269276 -1.093423,-0.390507 -0.131722,-0.04312 -0.264613,-0.0886 -0.399834,-0.128229 -0.320567,-0.09441 -0.648127,-0.173688 -0.978019,-0.245961 -0.179517,-0.03965 -0.362532,-0.08509 -0.546711,-0.121242 -0.09093,-0.01632 -0.176021,-0.0443 -0.266945,-0.05829 -0.245961,-0.04196 -0.491925,-0.05945 -0.737887,-0.09093 -0.170192,-0.01982 -0.336886,-0.04546 -0.509409,-0.06178 -0.412657,-0.03963 -0.822981,-0.05479 -1.233305,-0.0618 -0.07228,-0.0024 -0.144535,-0.01286 -0.220317,-0.01286 -0.01286,0 -0.02448,0.0035 -0.03847,0.0035 -3.15554,0.0024 -6.231811,0.93139 -8.873278,2.735889 -0.843964,0.574687 -1.04796,1.707743 -0.458117,2.531891 0.588675,0.824148 1.754371,1.022316 2.598336,0.445296 2.039968,-1.393006 4.420317,-2.097086 6.860122,-2.076105 0.35204,0.0024 0.697086,0.01866 1.038634,0.05013 0.106079,0.01286 0.210991,0.0268 0.314738,0.03965 0.279766,0.03263 0.559536,0.07228 0.833475,0.12472 0.121226,0.02332 0.240132,0.05362 0.359032,0.07926 0.270443,0.05945 0.538553,0.122386 0.802,0.198169 0.0816,0.0268 0.164362,0.05595 0.248293,0.08393 0.300749,0.09443 0.595672,0.197001 0.885928,0.314738 0.02914,0.01286 0.05945,0.0268 0.0886,0.03963 1.736889,0.72856 3.261619,1.851126 4.452959,3.254624 0.007,0.0081 0.01397,0.02097 0.02097,0.02798 1.67394,1.987511 2.682267,4.52873 2.684599,7.294926 l -3.110078,0 4.975191,7.272779 4.968196,-7.271613 -3.107746,0 z"
     id="path3762"
     style="fill:#ffffff" /></g><g
   id="layer3"
   style="display:inline"><path
     d="m 48,7.979 c -29.635,0 -40,10.365 -40,40 0,29.633 10.365,40 40,40 29.637,0 40,-10.367 40,-40 0,-29.635 -10.363,-40 -40,-40 z m 0,79.023 C 18.841,87.002 9,77.154 9,47.978 9,18.803 18.841,8.956 48,8.956 c 29.158,0 39,9.847 39,39.022 0,29.176 -9.842,39.024 -39,39.024 z"
     id="HIGHLIGHT_RIM"
     style="fill:url(#linearGradient3263);fill-opacity:0.25" /><path
     d="m 48,87.979 c -29.635,0 -40,-10.367 -40,-40 0,-29.634 10.365,-40 40,-40 29.637,0 40,10.365 40,40 0,29.632 -10.363,40 -40,40 z"
     id="SQUIRCLE"
     style="fill:#ffffff;fill-opacity:0.05;display:none" /><path
     d="M 9.478,64.25 C 13.244,81.519 24.624,87.979 48,87.979 c 23.378,0 34.756,-6.46 38.522,-23.729 H 9.478 z"
     id="path4502"
     style="opacity:0.02000002" /><path
     d="M 10.242,67.25 C 14.659,82.271 26.031,87.979 48,87.979 c 21.971,0 33.342,-5.708 37.758,-20.729 H 10.242 z"
     id="path4504"
     style="opacity:0.02000002" /><path
     d="M 11.258,70.25 C 16.284,83.041 27.555,87.979 48,87.979 c 20.446,0 31.717,-4.938 36.742,-17.729 H 11.258 z"
     id="path4506"
     style="opacity:0.02000002" /><path
     d="M 12.636,73.25 C 18.211,83.815 29.241,87.979 48,87.979 c 18.76,0 29.79,-4.163 35.365,-14.729 H 12.636 z"
     id="path4508"
     style="opacity:0.02000002" /><path
     d="M 13.797,75.25 C 19.685,84.348 30.47,87.979 48,87.979 c 17.531,0 28.316,-3.631 34.203,-12.729 H 13.797 z"
     id="path4510"
     style="opacity:0.02000002" /><path
     d="m 15.255,77.25 c 6.141,7.628 16.566,10.729 32.745,10.729 16.18,0 26.604,-3.101 32.745,-10.729 h -65.49 z"
     id="path4512"
     style="opacity:0.02000002" /><path
     d="m 17.059,79.25 c 6.305,6.177 16.254,8.729 30.941,8.729 14.688,0 24.638,-2.552 30.942,-8.729 H 17.059 z"
     id="path4514"
     style="fill-opacity:0.02000002" /><path
     d="m 48,8.979 c -29.635,0 -40,10.365 -40,40 0,2.888 0.102,5.588 0.307,8.119 l 0.219,0.02 h 78.958 l 0.21,-0.019 c 0.205,-2.531 0.307,-5.23 0.307,-8.12 C 88,19.344 77.637,8.979 48,8.979 z"
     id="path4517"
     style="opacity:0.01000001;fill:#ffffff" /><path
     d="m 48,7.979 c -29.635,0 -40,10.365 -40,40 0,1.051 0.017,2.073 0.043,3.077 l 0.701,0.062 H 87.26 l 0.697,-0.063 C 87.983,50.051 88,49.029 88,47.978 88,18.344 77.637,7.979 48,7.979 z"
     id="path4519"
     style="opacity:0.01000001;fill:#ffffff" /><path
     d="m 8.965,46.116 h 78.072 l 0.941,-0.084 C 87.521,17.897 76.975,7.979 48,7.979 19.027,7.979 8.479,17.898 8.022,46.033 l 0.943,0.083 z"
     id="path4521"
     style="opacity:0.01000001;fill:#ffffff" /><path
     d="M 9.186,41.116 H 86.814 L 87.775,41.03 C 86.147,16.713 75.187,7.979 48,7.979 20.815,7.979 9.853,16.714 8.225,41.032 l 0.961,0.084 z"
     id="path4523"
     style="opacity:0.01000001;fill:#ffffff" /><path
     d="m 9.186,37.116 h 77.628 c 0.201,0 0.397,-0.036 0.594,-0.066 C 84.854,15.753 73.648,7.979 48,7.979 c -25.646,0 -36.854,7.774 -39.408,29.072 0.197,0.029 0.392,0.065 0.594,0.065 z"
     id="path4525"
     style="opacity:0.01000001;fill:#ffffff" /><path
     d="m 48,7.979 c -24.004,0 -35.363,6.805 -38.814,25.138 H 86.814 C 83.363,14.783 72.006,7.979 48,7.979 z"
     id="path4527"
     style="opacity:0.01000001;fill:#ffffff" /><path
     d="m 84.074,29.67 1.6,-0.376 c 0.083,-0.02 0.158,-0.058 0.239,-0.084 C 81.605,13.805 70.22,7.979 48,7.979 c -22.218,0 -33.604,5.827 -37.913,21.231 0.081,0.026 0.156,0.064 0.239,0.084 l 1.599,0.376 c 0.226,0.053 0.456,0.08 0.688,0.08 h 70.773 c 0.232,0 0.463,-0.027 0.688,-0.08 z"
     id="path4529"
     style="opacity:0.01000001;fill:#ffffff" /><path
     d="m 12.613,26.75 h 70.773 l 1.6,-0.376 C 80.091,13.093 68.794,7.979 48,7.979 c -20.792,0 -32.09,5.115 -36.986,18.395 l 1.599,0.376 z"
     id="path4531"
     style="opacity:0.01000001;fill:#ffffff" /><path
     d="m 12.613,24.75 h 70.773 c 0.305,0 0.595,-0.081 0.86,-0.208 C 78.999,12.621 67.81,7.979 48,7.979 c -19.808,0 -30.998,4.643 -36.247,16.563 0.266,0.127 0.556,0.208 0.86,0.208 z"
     id="path4533"
     style="opacity:0.01000001;fill:#ffffff" /><path
     d="M 83.387,22.75 C 77.82,12.153 66.786,7.979 48,7.979 29.215,7.979 18.181,12.153 12.613,22.75 h 70.774 z"
     id="path4535"
     style="opacity:0.01000001;fill:#ffffff" /></g></svg>