<?xml version="1.0" encoding="UTF-8" standalone="no"?>

<svg version="1.1" width="30" height="30" viewBox="0 0 30 30" id="svg3008" xml:space="preserve">
   <metadata id="metadata3029">
      <rdf:RDF><cc:Work
       rdf:about=""><dc:format>image/svg+xml</dc:format><dc:type
         rdf:resource="http://purl.org/dc/dcmitype/StillImage" /><dc:title></dc:title></cc:Work></rdf:RDF></metadata><defs
   id="defs3027" />
<g
   id="DO_NOT_EDIT_-_BOUNDING_BOX">
	<rect width="30" height="30" x="0" y="0" id="BOUNDING_BOX" style="fill:none" />
</g>
<g transform="matrix(0.88983051,0,0,0.88983051,1.6525424,1.6525424)" id="PLACE_YOUR_GRAPHIC_HERE">
	<g id="g3013">	
		
		<path
   d="m 11.761829,24.205622 c -0.717,0.716 -0.715,1.883 0.005,2.604 0.72,0.721 1.888,0.724 2.605,0.007 0.715,-0.717 0.713,-1.883 -0.007,-2.604 -0.72,-0.721 -1.886,-0.724 -2.603,-0.007 z m -6.192,-2.783 c -0.717,0.715 -0.714,1.881 0.007,2.602 0.721,0.721 1.886,0.725 2.603,0.009 0.717,-0.717 0.714,-1.882 -0.007,-2.603 -0.721,-0.722 -1.886,-0.726 -2.603,-0.008 z m 20.917,-13.229 -1.511,-5.546 -3.048,3.047 c -4.781,-4.042 -11.935,-3.841 -16.412,0.636 -3.449,3.448 -4.351,8.48 -2.747,12.797 l -0.003,0.001 0.016,0.037 c 0.004,0.013 0.008,0.024 0.012,0.037 l 0.002,-0.001 0.032,0.078 c 0.183,0.456 0.707,0.678 1.162,0.492 l 0.9,-0.365 c 0.455,-0.185 0.677,-0.708 0.494,-1.164 l -0.047,-0.115 0.004,-10e-4 c -1.216,-3.324 -0.519,-7.185 2.132,-9.837 3.404,-3.404 8.807,-3.603 12.497,-0.636 l -3.061,3.06 5.546,1.511 5.545,1.514 -1.513,-5.545 z m -8.186,14.617 c -0.717,0.717 -0.713,1.884 0.007,2.604 0.721,0.721 1.889,0.725 2.605,0.007 0.715,-0.715 0.714,-1.882 -0.009,-2.603 -0.72,-0.721 -1.885,-0.725 -2.603,-0.008 z"
   id="path3021"
   style="fill:#ffffff" />
		<rect width="30" height="30" x="0" y="0" id="rect3023" style="fill:none" />
	</g>
</g>
</svg>