<?xml version="1.0" encoding="iso-8859-1"?>
<!DOCTYPE svg PUBLIC "-//W3C//DTD SVG 1.1//EN" "http://www.w3.org/Graphics/SVG/1.1/DTD/svg11.dtd">
<svg xmlns="http://www.w3.org/2000/svg" xmlns:xlink="http://www.w3.org/1999/xlink" version="1.1" id="Capa_1" x="0px" y="0px" width="512px" height="512px" viewBox="0 0 363.4 363.4" style="enable-background:new 0 0 363.4 363.4;" xml:space="preserve">
<g>
	<g>
		<path d="M181.8,133.9c5.7,0,9.601-3.8,9.601-9.6V86.1c0-5.7-3.8-9.6-9.601-9.6c-5.8,0-9.6,3.8-9.6,9.6v38.2    C172.2,130,176,133.9,181.8,133.9z" fill="#FFFFFF"/>
		<path d="M283.101,170.2l26.8-26.8c3.8-3.8,3.8-9.6,0-13.4c-3.8-3.8-9.601-3.8-13.4,0l-26.8,26.8c-3.8,3.8-3.8,9.6,0,13.4    C273.601,174,279.3,174,283.101,170.2z" fill="#FFFFFF"/>
		<path d="M101.4,229.5c11.5-32.5,44-57.4,80.3-57.4s68.9,24.9,80.3,57.4h19.2c-13.4-44-53.5-76.5-101.4-76.5    c-47.899,0-88,32.5-101.399,76.5H101.4z" fill="#FFFFFF"/>
		<path d="M80.4,170.2c3.8,3.8,9.6,3.8,13.4,0c3.8-3.8,3.8-9.6,0-13.4L67,130c-3.8-3.8-9.6-3.8-13.4,0c-3.8,3.8-3.8,9.6,0,13.4    L80.4,170.2z" fill="#FFFFFF"/>
		<path d="M353.9,267.699H9.6c-5.7,0-9.6,3.801-9.6,9.602c0,5.799,3.8,9.6,9.6,9.6h344.2c5.7,0,9.601-3.801,9.601-9.6    C363.4,271.5,359.601,267.699,353.9,267.699z" fill="#FFFFFF"/>
	</g>
</g>
</svg>
