<?xml version="1.0" encoding="UTF-8" standalone="no"?>
<svg xmlns:svg="http://www.w3.org/2000/svg" xmlns="http://www.w3.org/2000/svg" version="1.1" width="30" height="30" viewBox="0 0 30 30" id="svg3951" xml:space="preserve">
   <defs id="defs3966" />
<g id="DO_NOT_EDIT_-_BOUNDING_BOX">
	<rect width="30" height="30" x="0" y="0" id="BOUNDING_BOX" style="fill:none" />
</g>
<g id="PLACE_YOUR_GRAPHIC_HERE">
		<path
   d="m 11.4,8.407 c 1.072,-0.592 2.297,-0.937 3.606,-0.938 4.151,0 7.531,3.377 7.531,7.531 h 3.765 c 0,-6.238 -5.0578,-11.296 -11.296,-11.296 -2.028,0 -3.927,0.542 -5.571,1.4798 L 7.959,2.763 2.7566,11.2347 H 13.1235 L 11.4,8.407 z m 5.476,10.3584 1.736,2.828 c -1.072,0.59 -2.296,0.937 -3.605,0.937 -4.152,0 -7.531,-3.3794 -7.531,-7.53 H 3.710 c 0,6.238 5.058,11.296 11.296,11.296 2.033,0 3.935,-0.546 5.582,-1.487 l 1.491,2.429 5.164,-8.472 H 16.876 z"
   id="path3962"
   style="fill:#ffffff" />
</g>
</svg>